<svg width="13" height="16" fill="none" xmlns="http://www.w3.org/2000/svg"><path fill-rule="evenodd" clip-rule="evenodd" d="M12.082-.006H4.069V1.14H2.921v2.33H1.805v2.25H.66v2.25H.656v1.146h3.447v2.25H2.958v2.249H1.816v2.378H4.11v-1.147h1.137v-1.138h1.02V12.56H7.44v-1.148h1.17v-1.148h1.166V9.117h1.16V7.986h1.147V4.584H9.781V3.436h1.167V2.29h1.165V1.14h-.031V-.006zM4.109 14.847v-1.231h.988V12.56h1.168v-1.148h1.167v-1.148H8.6V9.117h1.167V7.97h1.168V5.73H7.5V4.584h1.113V3.436h1.168V2.29h1.164V1.14H4.07v2.33H2.95v2.25H1.81v2.25h4.564v1.146H5.247v2.25H4.103v2.249H2.96v1.23h1.148z" fill="#101114"/></svg>