<svg width="11" height="10" fill="none" xmlns="http://www.w3.org/2000/svg"><path d="M10.602 4.545v.91h-.455v.454h-.455v.455h-.454v.454h-.455v.455H8.33v.454h-.455v.455H7.42v.454h-.455v.455h-.454v.454h-.455V10h-.454v-.455h-.455v-.454h-.455v-.455h.455v-.454h.455v-.455h.454v-.454h.455v-.455h.454v-.454h.455v-.455H.602V4.091H7.42v-.455h-.455v-.454h-.454v-.455h-.455v-.454h-.454v-.455h-.455v-.454h-.455V.909h.455V.455h.455V0h.454v.455h.455v.454h.454v.455h.455v.454h.454v.455h.455v.454h.454v.455h.455v.454h.454v.455h.455v.454h.455z" fill="#101114"/></svg>