<svg width="11" height="10" fill="none" xmlns="http://www.w3.org/2000/svg"><path d="M.406 5.455v-.91h.455v-.454h.454v-.455h.455v-.454h.454v-.455h.455v-.454h.455v-.455h.454v-.454h.455V.909h.454V.455h.455V0h.454v.455h.455v.454h.454v.455h-.454v.454h-.455v.455h-.454v.454h-.455v.455h-.454v.454h-.455v.455h6.818v1.818H3.588v.455h.455v.454h.454v.455h.455v.454h.454v.455h.455v.454h.454v.455h-.454v.454h-.455V10h-.454v-.455h-.455v-.454h-.454v-.455h-.455v-.454h-.454v-.455h-.455v-.454h-.455v-.455H1.77v-.454h-.455v-.455H.861v-.454H.406z" fill="#101114"/></svg>