<svg width="180" height="179" fill="none" xmlns="http://www.w3.org/2000/svg"><path d="M1.149 178.197h35.573v-35.574H1.15v35.574z" fill="url(#paint0_linear_652_562)"/><path d="M108.034 107.268h35.574V71.693l-.002-.018h35.574V36.1h-35.574l.002-35.556h-35.574v106.724z" fill="url(#paint1_linear_652_562)"/><path d="M71.983 36.119H36.409V.544h35.574V36.12z" fill="url(#paint2_linear_652_562)"/><path d="M36.394.544H.82v70.95h35.574V.545z" fill="url(#paint3_linear_652_562)"/><path d="M108.017 71.693H72.444V36.12h35.573v35.574z" fill="url(#paint4_linear_652_562)"/><path d="M72.329 142.504h-35.49V71.611h35.573v70.811h35.49v35.574H72.329v-35.492z" fill="url(#paint5_linear_652_562)"/><defs><linearGradient id="paint0_linear_652_562" x1="-20.674" y1="-34.578" x2="143.452" y2="32.687" gradientUnits="userSpaceOnUse"><stop stop-color="#E9EBEC"/><stop offset="1" stop-color="#DBDEE0" stop-opacity="0"/></linearGradient><linearGradient id="paint1_linear_652_562" x1="-20.674" y1="-34.578" x2="143.452" y2="32.687" gradientUnits="userSpaceOnUse"><stop stop-color="#E9EBEC"/><stop offset="1" stop-color="#DBDEE0" stop-opacity="0"/></linearGradient><linearGradient id="paint2_linear_652_562" x1="-20.674" y1="-34.578" x2="143.452" y2="32.687" gradientUnits="userSpaceOnUse"><stop stop-color="#E9EBEC"/><stop offset="1" stop-color="#DBDEE0" stop-opacity="0"/></linearGradient><linearGradient id="paint3_linear_652_562" x1="-20.674" y1="-34.578" x2="143.452" y2="32.687" gradientUnits="userSpaceOnUse"><stop stop-color="#E9EBEC"/><stop offset="1" stop-color="#DBDEE0" stop-opacity="0"/></linearGradient><linearGradient id="paint4_linear_652_562" x1="-20.674" y1="-34.578" x2="143.452" y2="32.687" gradientUnits="userSpaceOnUse"><stop stop-color="#E9EBEC"/><stop offset="1" stop-color="#DBDEE0" stop-opacity="0"/></linearGradient><linearGradient id="paint5_linear_652_562" x1="-20.674" y1="-34.578" x2="143.452" y2="32.687" gradientUnits="userSpaceOnUse"><stop stop-color="#E9EBEC"/><stop offset="1" stop-color="#DBDEE0" stop-opacity="0"/></linearGradient></defs></svg>