<svg width="179" height="178" fill="none" xmlns="http://www.w3.org/2000/svg"><path d="M178.628.26h-35.573v35.575h35.573V.26z" fill="url(#paint0_linear_652_561)"/><path d="M71.743 71.19H36.17v35.593H.599v35.574H36.17l-.001 35.556h35.573V71.19z" fill="url(#paint1_linear_652_561)"/><path d="M107.795 142.339h35.573v35.574h-35.573v-35.574z" fill="url(#paint2_linear_652_561)"/><path d="M143.384 177.913h35.573v-70.95h-35.573v70.95z" fill="url(#paint3_linear_652_561)"/><path d="M71.76 106.764h35.573v35.575H71.76v-35.575z" fill="url(#paint4_linear_652_561)"/><path d="M107.449 35.953h35.49v70.894h-35.574V36.036h-35.49V.46h35.574v35.492z" fill="url(#paint5_linear_652_561)"/><defs><linearGradient id="paint0_linear_652_561" x1="200.451" y1="213.035" x2="36.326" y2="145.771" gradientUnits="userSpaceOnUse"><stop stop-color="#E9EBEC"/><stop offset="1" stop-color="#DBDEE0" stop-opacity="0"/></linearGradient><linearGradient id="paint1_linear_652_561" x1="200.451" y1="213.035" x2="36.326" y2="145.771" gradientUnits="userSpaceOnUse"><stop stop-color="#E9EBEC"/><stop offset="1" stop-color="#DBDEE0" stop-opacity="0"/></linearGradient><linearGradient id="paint2_linear_652_561" x1="200.451" y1="213.035" x2="36.326" y2="145.771" gradientUnits="userSpaceOnUse"><stop stop-color="#E9EBEC"/><stop offset="1" stop-color="#DBDEE0" stop-opacity="0"/></linearGradient><linearGradient id="paint3_linear_652_561" x1="200.451" y1="213.035" x2="36.326" y2="145.771" gradientUnits="userSpaceOnUse"><stop stop-color="#E9EBEC"/><stop offset="1" stop-color="#DBDEE0" stop-opacity="0"/></linearGradient><linearGradient id="paint4_linear_652_561" x1="200.451" y1="213.035" x2="36.326" y2="145.771" gradientUnits="userSpaceOnUse"><stop stop-color="#E9EBEC"/><stop offset="1" stop-color="#DBDEE0" stop-opacity="0"/></linearGradient><linearGradient id="paint5_linear_652_561" x1="200.451" y1="213.035" x2="36.326" y2="145.771" gradientUnits="userSpaceOnUse"><stop stop-color="#E9EBEC"/><stop offset="1" stop-color="#DBDEE0" stop-opacity="0"/></linearGradient></defs></svg>