<svg width="18" height="8" fill="none" xmlns="http://www.w3.org/2000/svg"><path d="M.76.216L.372.602.759.99l-.386.386.386.386-.386.387.386.386.387-.386.386.386.387-.386.386.386.386-.386.387.386.386-.386.386.386.387-.386.386.386.386-.386.387.386.386-.386.386.386.387-.386.386.386.387-.386.386.386.386-.386.387.386.386-.386.386.386.387-.386.386.386.386-.386.387.386.386-.386.387.386.386-.386.386.386.387-.386.386.386.386-.386.387.386.386-.386.386.386.387-.386.386.386.387-.386.386.386.386-.386.387.386.386-.386-.386-.387.386-.386-.386-.386.386-.387-.386-.386-.387.386-.386-.386-.386.386-.387-.386-.386.386-.386-.386-.387.386-.386-.386-.387.386-.386-.386-.386.386-.387-.386-.386.386-.386-.386-.387.386-.386-.386-.386.386-.387-.386-.386.386-.387-.386-.386.386-.386-.386L8.1.602 7.714.216l-.386.386L6.94.216l-.386.386-.386-.386-.387.386-.386-.386-.387.386-.386-.386-.386.386L3.85.216l-.386.386-.386-.386-.387.386-.386-.386-.387.386-.386-.386-.386.386L.759.216zm0 4.868l-.387.386.386.387-.386.386.386.387-.386.386.386.387.387-.387.386.387.387-.387.386.387.386-.387.387.387.386-.387.386.387.387-.387.386.387.386-.387.387.387.386-.387.386.387.387-.387.386.387.387-.387.386.387.386-.387.387.387.386-.387.386.387.387-.387.386.387.386-.387.387.387.386-.387.387.387.386-.387.386.387.387-.387.386.387.386-.387.387.387.386-.387.386.387.387-.387.386.387.387-.387.386.387.386-.387.387.387.386-.387-.386-.386.386-.387-.386-.386.386-.387-.386-.386-.387.386-.386-.386-.386.386-.387-.386-.386.386-.386-.386-.387.386-.386-.386-.387.386-.386-.386-.386.386-.387-.386-.386.386-.386-.386-.387.386-.386-.386-.386.386-.387-.386-.386.386-.387-.386-.386.386-.386-.386-.387.386-.386-.386-.386.386-.387-.386-.386.386-.386-.386-.387.386-.386-.386-.387.386-.386-.386-.386.386-.387-.386-.386.386-.386-.386-.387.386-.386-.386-.387.386-.386-.386-.386.386-.387-.386z" fill="#101114"/></svg>