<svg width="21" height="21" fill="none" xmlns="http://www.w3.org/2000/svg"><path d="M18.965 14.63v-7.5h-1.25v-2.5h-1.25V3.38h-2.5V2.13h-7.5v1.25h-2.5v1.25h-1.25v2.5h-1.25v7.5h1.25v2.5h1.25v1.25h2.5v1.25h7.5v-1.25h2.5v-1.25h1.25v-2.5h1.25z" fill="#4E5158"/><path d="M12.715 7.13h1.25v1.25h-1.25V7.13zm0 6.25h1.25v1.25h-1.25v-1.25zm-6.25 0h1.25v1.25h-1.25v-1.25zm10-10h1.25v1.25h-1.25V3.38zm0 13.75h1.25v1.25h-1.25v-1.25zm-13.75 0h1.25v1.25h-1.25v-1.25zm0-13.75h1.25v1.25h-1.25V3.38zm3.75 3.75h1.25v1.25h-1.25V7.13zm3.75 1.25h1.25v1.25h-1.25V8.38zM6.465.88v1.25h7.5V.88h-7.5zm-2.5 1.25v1.25h2.5V2.13h-2.5zm10 0v1.25h2.5V2.13h-2.5zm5 2.5h-1.25v2.5h1.25v-2.5zm-16.25 0h-1.25v2.5h1.25v-2.5z" fill="#101114"/><path d="M1.465 7.13H.215v7.5h1.25v-7.5zm3.75 6.25h1.25v-5h-1.25v5zm2.5-7.5v1.25h5V5.88h-5zm7.5 2.5h-1.25v5h1.25v-5zm-6.25 3.75h1.25v-2.5h-1.25v2.5zm3.75 3.75v-1.25h-5v1.25h5zm6.25-1.25h1.25v-7.5h-1.25v7.5zm-1.25 2.5h1.25v-2.5h-1.25v2.5zm-3.75 1.25v1.25h2.5v-1.25h-2.5zm-7.5 1.25v1.25h7.5v-1.25h-7.5zm0 0v-1.25h-2.5v1.25h2.5zm-3.75-5h-1.25v2.5h1.25v-2.5z" fill="#101114"/></svg>