<svg width="14" height="14" fill="none" xmlns="http://www.w3.org/2000/svg"><path d="M8.823 7.65h.65v.65h.65v.65h.65v.65h.65v.65h.65v.65h.65v.65h.65v.65h-.65v.65h-.65v.65h-.65v-.65h-.65v-.65h-.65v-.65h-.65v-.65h-.65v-.65h-.65V9.6h-.65v-.65h-1.3v.65h-.65v.65h-.65v.65h-.65v.65h-.65v.65h-.65v.65h-.65v.65h-.65v-.65h-.65v-.65h-.65v-.65h.65v-.65h.65v-.65h.65V9.6h.65v-.65h.65V8.3h.65v-.65h.65v-1.3h-.65V5.7h-.65v-.65h-.65V4.4h-.65v-.65h-.65V3.1h-.65v-.65h-.65V1.8h.65v-.65h.65V.5h.65v.65h.65v.65h.65v.65h.65v.65h.65v.65h.65v.65h.65v.65h1.3V4.4h.65v-.65h.65V3.1h.65v-.65h.65V1.8h.65v-.65h.65V.5h.65v.65h.65v.65h.65v.65h-.65v.65h-.65v.65h-.65v.65h-.65v.65h-.65v.65h-.65v.65h-.65v1.3z" fill="#0D59B5"/></svg>