<svg width="26" height="26" fill="none" xmlns="http://www.w3.org/2000/svg"><path d="M16.799 14.273h1.25v1.25h1.25v1.25h1.25v1.25h1.25v1.25h1.25v1.25h1.25v1.25h1.25v1.25h-1.25v1.25h-1.25v1.25h-1.25v-1.25h-1.25v-1.25h-1.25v-1.25h-1.25v-1.25h-1.25v-1.25h-1.25v-1.25h-1.25v-1.25h-2.5v1.25h-1.25v1.25h-1.25v1.25h-1.25v1.25h-1.25v1.25h-1.25v1.25h-1.25v1.25h-1.25v-1.25h-1.25v-1.25H.549v-1.25h1.25v-1.25h1.25v-1.25h1.25v-1.25h1.25v-1.25h1.25v-1.25h1.25v-1.25h1.25v-2.5h-1.25v-1.25h-1.25v-1.25h-1.25v-1.25h-1.25v-1.25h-1.25v-1.25h-1.25v-1.25H.549v-1.25h1.25v-1.25h1.25V.522h1.25v1.25h1.25v1.25h1.25v1.25h1.25v1.25h1.25v1.25h1.25v1.25h1.25v1.25h2.5v-1.25h1.25v-1.25h1.25v-1.25h1.25v-1.25h1.25v-1.25h1.25v-1.25h1.25V.522h1.25v1.25h1.25v1.25h1.25v1.25h-1.25v1.25h-1.25v1.25h-1.25v1.25h-1.25v1.25h-1.25v1.25h-1.25v1.25h-1.25v2.5z" fill="#fff" fill-opacity=".5"/></svg>