<svg width="39" height="35" fill="none" xmlns="http://www.w3.org/2000/svg"><path fill-rule="evenodd" clip-rule="evenodd" d="M25.65.47v1.82h1.584v4.284l9.683-.01v1.293h1.292v25.846h-1.292v1.293H1.501v-1.293H.209V7.857h1.292V6.565l9.792.01V2.29h1.475V.47H25.65zM14.285 6.575h9.955v-3.34h-9.955v3.34zM24.893 22.68l.948.947 1.895-1.895-.948-.947.948-.948-1.895-1.894-.948.947-.947-.947-.947.947-1.895-1.895.947-.947-.947-.947.947-.948-1.895-1.895-.947.948-.947-.947-1.895 1.894.947.948-.947.947.947.947-1.895 1.895-.947-.947-.947.947-.948-.947-1.895 1.894.948.948-.948.947 1.895 1.895.947-.947.948.947.947-.947 1.895 1.895-.947.947.947.947-.947.948 1.895 1.894.947-.947.947.947 1.895-1.894-.947-.948.947-.947-.947-.947 1.895-1.895.947.947.947-.947z" fill="#1F6FCF"/></svg>