<svg width="179" height="180" fill="none" xmlns="http://www.w3.org/2000/svg"><g opacity=".31"><path d="M.49 1.121v35.574h35.575V1.12H.49z" fill="url(#paint0_linear_135_5779)"/><path d="M71.42 108.007v35.573h35.574l.019-.001v35.573h35.574v-35.573l35.556.001v-35.573H71.42z" fill="url(#paint1_linear_135_5779)"/><path d="M142.569 71.955V36.382h35.574v35.573h-35.574z" fill="url(#paint2_linear_135_5779)"/><path d="M178.143 36.366V.793h-70.95v35.573h70.95z" fill="url(#paint3_linear_135_5779)"/><path d="M106.994 107.99V72.416h35.575v35.574h-35.575z" fill="url(#paint4_linear_135_5779)"/><path d="M36.183 72.301v-35.49h70.894v35.573H36.266v35.49H.69V72.301h35.492z" fill="url(#paint5_linear_135_5779)"/></g><defs><linearGradient id="paint0_linear_135_5779" x1="173.497" y1="-50.816" x2="100.096" y2="135.44" gradientUnits="userSpaceOnUse"><stop stop-color="#fff"/><stop offset="1" stop-color="#fff" stop-opacity="0"/></linearGradient><linearGradient id="paint1_linear_135_5779" x1="173.497" y1="-50.816" x2="100.096" y2="135.44" gradientUnits="userSpaceOnUse"><stop stop-color="#fff"/><stop offset="1" stop-color="#fff" stop-opacity="0"/></linearGradient><linearGradient id="paint2_linear_135_5779" x1="173.497" y1="-50.816" x2="100.096" y2="135.44" gradientUnits="userSpaceOnUse"><stop stop-color="#fff"/><stop offset="1" stop-color="#fff" stop-opacity="0"/></linearGradient><linearGradient id="paint3_linear_135_5779" x1="173.497" y1="-50.816" x2="100.096" y2="135.44" gradientUnits="userSpaceOnUse"><stop stop-color="#fff"/><stop offset="1" stop-color="#fff" stop-opacity="0"/></linearGradient><linearGradient id="paint4_linear_135_5779" x1="173.497" y1="-50.816" x2="100.096" y2="135.44" gradientUnits="userSpaceOnUse"><stop stop-color="#fff"/><stop offset="1" stop-color="#fff" stop-opacity="0"/></linearGradient><linearGradient id="paint5_linear_135_5779" x1="173.497" y1="-50.816" x2="100.096" y2="135.44" gradientUnits="userSpaceOnUse"><stop stop-color="#fff"/><stop offset="1" stop-color="#fff" stop-opacity="0"/></linearGradient></defs></svg>