<svg width="39" height="39" fill="none" xmlns="http://www.w3.org/2000/svg"><path d="M24.416.747h9.511V3.05h2.26v2.384H33.82V3.116h-9.403V.746zM38.682 5.52v9.51h-2.37V5.52h2.37z" fill="#1F6FCF"/><path d="M3.05 24.509H.683v9.51H3.05v2.385h2.305v2.316h9.51v-2.316h2.37V34.02h2.369v-2.385h2.369v-2.384h2.369v-2.384h2.369v-2.385h2.369v-2.384h2.369v-2.385h2.369V17.33h2.369v-2.384h-2.37v2.384H31.45v2.384h-2.37v2.385h-2.368v2.384h-2.37v-2.384h-2.368V19.74h-2.37v-2.384h-2.34v-2.411h-2.368v-2.358h2.369v-2.384h2.369V7.818h2.369V5.434h2.369V3.05h-2.37v2.384h-2.368v2.384h-2.37v2.385h-2.368v2.384h-2.37v2.384h-2.368v2.385h-2.37v2.384H5.42v2.385H3.05v2.384z" fill="#1F6FCF"/></svg>