<svg width="39" height="39" fill="none" xmlns="http://www.w3.org/2000/svg"><path d="M27.336 2L26.07.733 24.803 2 23.536.733 22.27 2 21.003.733 19.736 2 18.47.733 17.203 2 15.936.733 14.67 2 13.403.733 12.136 2 10.87.733.736 10.867l1.267 1.266L.736 13.4l1.267 1.267-1.267 1.266L2.003 17.2.736 18.467l1.267 1.266L.736 21l1.267 1.267-1.267 1.266L2.003 24.8.736 26.067l1.267 1.266L.736 28.6 10.87 38.733l1.266-1.266 1.267 1.266 1.267-1.266 1.266 1.266 1.267-1.266 1.267 1.266 1.266-1.266 1.267 1.266 1.267-1.266 1.266 1.266 1.267-1.266 1.267 1.266 1.266-1.266 1.267 1.266L38.736 28.6l-1.266-1.267 1.266-1.266L37.47 24.8l1.266-1.267-1.266-1.266L38.736 21l-1.266-1.267 1.266-1.266L37.47 17.2l1.266-1.267-1.266-1.266 1.266-1.267-1.266-1.267 1.266-1.266L28.603.733 27.336 2zm3.8 19l-2.533 2.533-1.267-1.266-1.266 1.266-1.267-1.266L22.27 24.8l1.266 1.267-1.266 1.266 1.266 1.267-2.533 2.533-1.267-1.266-1.266 1.266-2.534-2.533 1.267-1.267-1.267-1.266 1.267-1.267-2.533-2.533-1.267 1.266-1.267-1.266-1.266 1.266L8.336 21l1.267-1.267-1.267-1.266 2.534-2.534 1.266 1.267 1.267-1.267L14.67 17.2l2.533-2.533-1.267-1.267 1.267-1.267-1.267-1.266 2.534-2.534L19.736 9.6l1.267-1.267 2.533 2.534-1.266 1.266 1.266 1.267-1.266 1.267 2.533 2.533 1.267-1.267 1.266 1.267 1.267-1.267 2.533 2.534-1.266 1.266L31.136 21z" fill="#1F6FCF"/></svg>