<svg width="19" height="19" fill="none" xmlns="http://www.w3.org/2000/svg"><path d="M5.294 8.732h.818v-.818h.818v.818h.818v.818h1.637v-.818h.818v-.818h.818v-.818h.818v-.818h.819v.818h.818v1.636h-.819v.818h-.818v.818h-.818v.819h-.818v.818h-.818v.818H7.748v-.818H6.93v-.818h-.818v-.819h-.818V8.732z" fill="#101114"/><path fill-rule="evenodd" clip-rule="evenodd" d="M16.567 8.096v.818h.818v1.273h-.818v.818h-.819v3.273h-.818v.818h-.818v.818h-3.273v.818h-.818v.818H8.748v-.818H7.93v-.818H4.657v-.818H3.84v-.818h-.818v-3.273h-.818v-.818h-.818V8.914h.818v-.818h.818V4.823h.818v-.818h.818v-.818H7.93v-.819h.818V1.55h1.273v.818h.818v.819h3.273v.818h.818v.818h.818v3.273h.819zm-1.455-5.91v.819h.818v.818h.818v3.273h.819v.818h.818v3.273h-.818v.818h-.819v3.273h-.818v.818h-.818v.818h-3.273v.818h-.818v.818H7.748v-.818H6.93v-.818H3.657v-.818H2.84v-.818h-.818v-3.273h-.818v-.818H.385V7.914h.818v-.818h.818V3.823h.818v-.818h.818v-.818H6.93v-.819h.818V.55h3.273v.818h.818v.819h3.273z" fill="#101114"/></svg>