<svg width="51" height="51" fill="none" xmlns="http://www.w3.org/2000/svg"><rect x=".414" y=".54" width="50" height="50" rx="8" fill="#4E5158" fill-opacity=".1"/><path d="M25.834 15.964c1.047-.016 2.087-.006 3.126-.016.063 1.224.503 2.47 1.398 3.335.894.887 2.159 1.293 3.389 1.43v3.219c-1.153-.038-2.311-.278-3.357-.774-.456-.206-.88-.472-1.296-.744-.005 2.336.01 4.669-.015 6.995a6.084 6.084 0 01-1.08 3.15c-1.046 1.533-2.861 2.533-4.725 2.564-1.143.065-2.285-.247-3.26-.821-1.614-.952-2.75-2.695-2.915-4.565a13.491 13.491 0 01-.01-1.19 5.992 5.992 0 012.064-3.965c1.324-1.153 3.178-1.702 4.914-1.377.016 1.184-.031 2.367-.031 3.55-.793-.256-1.72-.184-2.413.297a2.77 2.77 0 00-1.09 1.399c-.166.405-.119.855-.109 1.286.19 1.312 1.451 2.414 2.798 2.295.892-.01 1.748-.528 2.213-1.286.15-.266.32-.537.328-.85.079-1.43.047-2.853.057-4.283.007-3.223-.01-6.436.015-9.648z" fill="#fff"/></svg>