<svg width="176" height="39" fill="none" xmlns="http://www.w3.org/2000/svg"><path d="M46.172 15.711h-7.61v7.61h7.61v-7.61zm0 15.219h-7.61v7.61h7.61v-7.61z" fill="#1F6FCF"/><path d="M61.494 30.93h-7.61v7.61h7.61v-7.61zm7.611 0h-7.609v7.61h7.61v-7.61z" fill="#FDD631"/><path d="M69.105 23.363h-7.609v7.61h7.61v-7.61zM23.363 30.93h-7.61v7.61h7.61v-7.61z" fill="#1F6FCF"/><path d="M15.82 15.797H8.21v7.609h7.61v-7.61zm15.11 0h-7.61v7.609h7.61v-7.61z" fill="#FDD631"/><path d="M8.254 15.797H.644v7.609h7.61v-7.61z" fill="#FDD631"/><path d="M8.254.578H.644v7.61h7.61V.577zm0 22.795H.644v7.61h7.61v-7.61z" fill="#1F6FCF"/><path d="M23.363.605h-7.61v7.61h7.61V.605z" fill="#FDD631"/><path d="M53.785 23.32h-7.61v7.61h7.61v-7.61z" fill="#1F6FCF"/><path d="M61.402 15.729h-7.609v7.61h7.61v-7.61z" fill="#FDD631"/><path d="M61.402 8.174h-7.609v7.61h7.61v-7.61z" fill="#FDD631"/><path d="M69.035.54h-7.61v7.609h7.61V.539zM53.81.583h-7.609v7.609h7.61V.582zM38.564 23.325h-7.609v7.609h7.61v-7.61z" fill="#1F6FCF"/><path d="M46.172 23.32h-7.61v7.61h7.61v-7.61zm46.236-3.116c1.547.73 2.406 2.062 2.406 3.867 0 2.793-2.062 4.469-5.585 4.469h-7.692V12.21h7.648c3.352 0 5.329 1.633 5.329 4.34 0 1.676-.774 2.922-2.106 3.653zm-3.824-5.028h-3.523v3.61h3.523c1.547 0 2.32-.602 2.32-1.805 0-1.203-.773-1.805-2.32-1.805zm.043 10.399c1.676 0 2.535-.645 2.535-1.977s-.86-1.976-2.535-1.976h-3.566v3.953h3.566zm22.988-.387h1.977v6.79h-3.61V28.54H99.799v3.437h-3.61v-6.789h1.805c.215-1.29.344-3.18.344-5.715v-7.262h13.277v12.977zm-10.054.086h6.402v-9.797h-6.016v3.996c0 2.106-.172 4.168-.386 5.8zm27.585-13.063V28.54h-3.695v-6.016h-5.457v2.965c0 1.976-1.16 3.05-3.137 3.05h-1.89v-3.351h.601c.43 0 .731-.3.731-.73v-3.524h2.75c-1.805-.559-3.438-1.977-3.438-4.168 0-2.836 2.235-4.555 5.973-4.555h7.562zm-7.003 3.008c-1.891 0-2.836.73-2.836 2.235 0 1.546.945 2.234 2.836 2.234h3.308v-4.469h-3.308zm20.281-3.008h3.695V28.54h-3.695v-6.145h-3.953c-3.867 0-5.93-1.805-5.93-5.242V12.21h3.695v4.555c0 1.676.774 2.363 2.578 2.363h3.61V12.21zm18.476 0h3.696V28.54H160.9v-6.704h-6.703v6.704h-3.695V12.21h3.695v6.274h6.703V12.21zm8.079 16.329V12.21h3.695v16.33h-3.695z" fill="#1F6FCF"/></svg>