<svg width="51" height="51" fill="none" xmlns="http://www.w3.org/2000/svg"><rect x=".414" y=".54" width="50" height="50" rx="8" fill="#4E5158" fill-opacity=".1"/><path d="M36.786 20.107a2.756 2.756 0 00-.757-1.256 3.016 3.016 0 00-1.324-.733c-1.857-.49-9.298-.49-9.298-.49a75.774 75.774 0 00-9.286.465 3.123 3.123 0 00-1.323.751 2.864 2.864 0 00-.77 1.262 28.784 28.784 0 00-.482 5.434c-.012 1.82.149 3.64.482 5.433.136.474.4.906.767 1.255.367.35.823.601 1.326.735 1.882.489 9.286.489 9.286.489 3.106.035 6.212-.12 9.299-.465a3.028 3.028 0 001.323-.734c.366-.35.626-.783.756-1.256.342-1.791.508-3.611.496-5.434.026-1.831-.14-3.66-.495-5.457v.001zm-13.744 8.819v-6.771l6.19 3.386-6.19 3.385z" fill="#fff"/></svg>