<svg width="51" height="51" fill="none" xmlns="http://www.w3.org/2000/svg"><rect x=".414" y=".54" width="50" height="50" rx="8" fill="#4E5158" fill-opacity=".1"/><path d="M21.94 17.206a4.867 4.867 0 00-4.86 4.862v6.944c0 2.68 2.182 4.86 4.862 4.86h6.944c2.68 0 4.86-2.18 4.86-4.861v-6.945c0-2.68-2.18-4.86-4.861-4.86H21.94zm8.473 2.667a.667.667 0 110 1.334.667.667 0 010-1.334zm-5 1.333a4.337 4.337 0 014.334 4.333 4.338 4.338 0 01-4.334 4.334 4.338 4.338 0 01-4.333-4.334 4.338 4.338 0 014.333-4.333zm0 1.333a3 3 0 100 6 3 3 0 000-6z" fill="#fff"/></svg>