<svg width="97" height="75" fill="none" xmlns="http://www.w3.org/2000/svg"><path d="M59.67 15.752h-7.61v7.61h7.61v-7.61zm0 15.218h-7.61v7.61h7.61v-7.61z" fill="#1F6FCF"/><path d="M74.992 30.97h-7.61v7.61h7.61v-7.61zm7.611 0h-7.609v7.61h7.61v-7.61z" fill="#FDD631"/><path d="M82.603 23.403h-7.609v7.61h7.61v-7.61zM36.861 30.97h-7.609v7.61h7.61v-7.61z" fill="#1F6FCF"/><path d="M29.318 15.837H21.71v7.61h7.61v-7.61zm15.11 0h-7.61v7.61h7.61v-7.61z" fill="#FDD631"/><path d="M21.752 15.837h-7.61v7.61h7.61v-7.61z" fill="#FDD631"/><path d="M21.752.618h-7.61v7.61h7.61V.617zm0 22.796h-7.61v7.61h7.61v-7.61z" fill="#1F6FCF"/><path d="M36.861.646h-7.609v7.61h7.61V.646z" fill="#FDD631"/><path d="M67.283 23.361h-7.61v7.61h7.61v-7.61z" fill="#1F6FCF"/><path d="M74.9 15.77h-7.609v7.609h7.61v-7.61z" fill="#FDD631"/><path d="M74.9 8.215h-7.609v7.609h7.61v-7.61z" fill="#FDD631"/><path d="M82.533.58h-7.61v7.61h7.61V.58zM67.308.623H59.7v7.61h7.61V.622zM52.062 23.365h-7.609v7.61h7.61v-7.61z" fill="#1F6FCF"/><path d="M59.67 23.361h-7.61v7.61h7.61v-7.61zM13.676 62.244c1.547.73 2.406 2.063 2.406 3.867 0 2.793-2.063 4.47-5.586 4.47H2.805v-16.33h7.648c3.352 0 5.328 1.633 5.328 4.34 0 1.676-.773 2.922-2.105 3.652zm-3.824-5.027H6.328v3.61h3.524c1.546 0 2.32-.602 2.32-1.805 0-1.204-.774-1.805-2.32-1.805zm.043 10.398c1.675 0 2.535-.644 2.535-1.976 0-1.332-.86-1.977-2.535-1.977H6.328v3.953h3.567zm22.988-.386h1.976v6.789H31.25V70.58H21.066v3.438h-3.609v-6.79h1.805c.215-1.288.343-3.18.343-5.714v-7.262h13.278v12.976zm-10.055.085h6.402v-9.796h-6.015v3.996a45.67 45.67 0 01-.387 5.8zm27.586-13.062V70.58H46.72v-6.016h-5.457v2.965c0 1.977-1.16 3.051-3.137 3.051h-1.89v-3.352h.6c.43 0 .731-.3.731-.73v-3.523h2.75c-1.804-.559-3.437-1.977-3.437-4.168 0-2.836 2.234-4.555 5.973-4.555h7.562zM43.41 57.26c-1.89 0-2.836.73-2.836 2.234 0 1.547.946 2.234 2.836 2.234h3.309V57.26H43.41zm20.281-3.008h3.696V70.58H63.69v-6.144h-3.953c-3.867 0-5.93-1.805-5.93-5.243v-4.941h3.696v4.555c0 1.675.773 2.363 2.578 2.363h3.61v-6.918zm18.477 0h3.695V70.58h-3.695v-6.703h-6.703v6.703h-3.696V54.252h3.696v6.273h6.703v-6.273zm8.078 16.328V54.252h3.695V70.58h-3.695z" fill="#1F6FCF"/></svg>