<svg width="21" height="21" fill="none" xmlns="http://www.w3.org/2000/svg"><path d="M3.072 6.594h1.429v1.429H3.072V6.594zM4.5 5.166h1.43v1.428H4.5V5.166zM.215 9.451h1.428v1.429H.215V9.45zm18.571 0h1.429v1.429h-1.429V9.45zm-1.428-1.428h1.428V9.45h-1.428V8.023zM15.93 6.594h1.428v1.429h-1.429V6.594zM14.5 5.166h1.43v1.428H14.5V5.166zm-1.428-1.429h1.429v1.429h-1.429V3.737zm-1.429-1.429h1.429v1.429h-1.429V2.308zM10.215.88h1.428v1.428h-1.428V.88zM7.358 2.308h1.428v1.429H7.358V2.308zM8.786.88h1.429v1.428H8.786V.88zM5.93 3.737h1.428v1.429H5.929V3.737zM1.643 8.023h1.429V9.45H1.643V8.023zm1.429 2.857H1.643v8.571h1.429V10.88zm0 8.571v1.429h4.286v-1.43H3.072zm4.286 0h1.428v-4.285H7.358v4.285zm1.428-5.714v1.429h2.857v-1.429H8.786zm4.286 1.429h-1.429v4.285h1.429v-4.285z" fill="#101114"/><path d="M13.072 19.451v1.429h4.286v-1.43h-4.286zm4.286 0h1.428V10.88h-1.428v8.571z" fill="#101114"/><path d="M1.643 9.45v1.429H3.07v8.572h4.286v-4.286h1.428v-1.429h2.858v1.429h1.428v4.286h4.286v-8.572h1.428V9.45h-1.428V8.022h-1.429V6.593H14.5V5.165h-1.43V3.736h-1.428V2.308H8.785v1.428H7.357v1.429H5.928v1.428H4.5v1.429H3.07V9.45H1.643z" fill="#4E5158"/></svg>