<svg width="18" height="18" fill="none" xmlns="http://www.w3.org/2000/svg"><path d="M1.503 1.693h1.215v1.214H1.503V1.693zm0 14.571V15.05h1.215v1.214H1.503zM14.86 1.693h1.215v1.214H14.86V1.693zm-3.642 9.714h-1.215v-1.214h1.215v1.214zM6.36 10.193h1.215v1.214H6.36v-1.214zm4.858-2.429h-1.215V6.55h1.215v1.214zm2.428-2.428h-1.214V4.12h1.214v1.215zM7.575 7.764H6.36V6.55h1.215v1.214zm7.285 7.286h1.215v1.214H14.86V15.05zM2.718 16.264v1.215H14.86v-1.215H2.717zm4.857-4.857v1.214h2.428v-1.214H7.575zm2.428-4.857V5.336H7.575V6.55h2.428zM6.36 7.764H5.146v2.429H6.36V7.764zm4.858 2.429h1.214V7.764h-1.214v2.429zm4.857 4.857h1.214V2.907h-1.214V15.05zM2.718.479v1.214H14.86V.479H2.717zM.29 15.05h1.213V2.907H.29V15.05z" fill="#1F6FCF"/></svg>