<svg width="19" height="19" fill="none" xmlns="http://www.w3.org/2000/svg"><path d="M1.786 1.61H3.07v1.286H1.786V1.61zm0 15.429v-1.286H3.07v1.286H1.786zM15.929 1.61h1.285v1.286H15.93V1.61zm-3.858 10.286h-1.285V10.61h1.285v1.286zM6.929 10.61h1.285v1.286H6.93V10.61zm5.142-2.571h-1.285V6.753h1.285V8.04zm2.572-2.571h-1.286V4.182h1.286v1.286zM8.214 8.039H6.93V6.753h1.285V8.04zm7.715 7.714h1.285v1.286H15.93v-1.286zM3.071 17.039v1.286H15.93v-1.286H3.07zm5.143-5.143v1.286h2.572v-1.286H8.214zm2.572-5.143V5.468H8.214v1.285h2.572zM6.929 8.039H5.643v2.571h1.286V8.04zm5.142 2.571h1.286V8.04h-1.286v2.571zm5.143 5.143H18.5V2.896h-1.286v12.857zM3.071.325V1.61H15.93V.325H3.07zM.5 15.753h1.286V2.896H.5v12.857z" fill="#FDD631"/></svg>