<svg width="37" height="17" fill="none" xmlns="http://www.w3.org/2000/svg"><path d="M1.94 1.177l.008.027c.174.604-.292 1.198-.923 1.198h-.01a.94.94 0 01-.94-.942v-.027c0-.521.41-.933.932-.942a.929.929 0 01.932.686zm.338 3.712v7.616a.94.94 0 01-.942.941h-.302a.94.94 0 01-.941-.941V4.889a.94.94 0 01.941-.942h.302a.94.94 0 01.942.942zm1.745 8.017v-8.43c0-.301.238-.548.549-.548h.713c.256 0 .485.183.53.439.074.402.549.566.869.329.667-.512 1.39-.76 2.194-.76 2.066 0 3.109 1.171 3.109 3.512v5.449a.544.544 0 01-.549.548h-1.115a.544.544 0 01-.549-.548v-5.45c0-1.05-.484-1.572-1.444-1.572-.64 0-1.28.256-1.902.759a.528.528 0 00-.21.42v5.852a.544.544 0 01-.549.548H4.554a.547.547 0 01-.53-.548zM14.338 2.393h.274c.347 0 .658.237.722.594l.073.366a.751.751 0 00.723.594h.85c.411 0 .75.338.75.75v.402c0 .411-.339.75-.75.75h-.457a.753.753 0 00-.75.75v3.62c0 .887.348 1.335 1.052 1.335h.146c.411 0 .75.338.75.75v.402c0 .411-.339.75-.75.75h-1.207c-1.463 0-2.204-.86-2.204-2.57V3.151c.028-.42.366-.758.778-.758zm9.701 11.035c.182-.01.338-.1.457-.229l1.033-1.262c.183-.228 0-.566-.293-.52-.603.082-1.197.118-1.8.118-1.3 0-2.131-.338-2.497-1.033-.238-.448.11-.978.604-.978h4.36a.68.68 0 00.677-.64c.01-.183.01-.348.01-.53 0-2.945-1.335-4.416-3.987-4.416-2.734 0-4.105 1.554-4.105 4.653 0 3.246 1.582 4.864 4.754 4.864l.787-.027zM22.612 5.82c1.225 0 1.829.658 1.829 1.975v.073h-2.917c-.457 0-.795-.457-.64-.887.275-.777.841-1.161 1.728-1.161z" fill="#fff"/><path d="M32.586 8.956l2.697 3.62a.5.5 0 01-.402.796h-.073a3.17 3.17 0 01-2.533-1.27l-.85-1.134a.497.497 0 00-.796 0l-1.8 2.404-1.528 1.92a3.27 3.27 0 01-2.395 1.198.494.494 0 01-.411-.796l5.028-6.72a.537.537 0 00-.009-.603l-2.715-3.62a.5.5 0 01.402-.796h.786c.549 0 1.052.256 1.38.686" fill="#fff"/><path d="M36.428 1.844h-.237c-.869 0-1.682.411-2.204 1.106l-2.55 3.401c-.366.412-.76.046-.76.046l1.902 2.56a.494.494 0 010-.594l4.252-5.715c.237-.329.009-.804-.403-.804z" fill="#0D59B5"/></svg>