<svg width="138" height="39" fill="none" xmlns="http://www.w3.org/2000/svg"><path d="M60.851 30.933h-7.607v7.607h7.607v-7.607zm7.608 0h-7.607v7.607h7.607v-7.607z" fill="#FDD631"/><path d="M68.457 23.36H60.85v7.608h7.607v-7.607zm-45.742 7.572h-7.608v7.607h7.608v-7.607z" fill="#0D59B5"/><path d="M30.287 15.796H22.68v7.608h7.607v-7.607zm-22.673 0H0v7.608h15.179v-7.607H7.614z" fill="#FDD631"/><path d="M7.607.575H0v7.607h7.607V.575zm0 22.793H0v7.607h7.607v-7.607z" fill="#0D59B5"/><path d="M22.715.604h-7.608V8.21h7.608V.604zM53.15 8.168V23.34h7.608V8.168H53.15z" fill="#FDD631"/><path d="M68.392.54h-7.607v7.607h7.607V.54zM53.166.575h-7.607v7.607h7.607V.575zm-7.637 15.136h-7.607v7.607h7.607v-7.607zm7.606 7.607h-7.608v7.607h7.608v-7.607z" fill="#0D59B5"/><path d="M37.922 23.325h-7.607v7.608h7.607v7.607h7.607V23.318h-7.607v.007zm46.162-7.27L77.457.54h4.744l5.585 13.432H84.99L90.711.54h4.344l-6.648 15.515h-4.323zm11.879 0V.54h7.34c1.712 0 3.225.32 4.523.955 1.298.635 2.318 1.527 3.046 2.683.727 1.155 1.098 2.525 1.098 4.123 0 1.598-.363 2.953-1.098 4.109-.735 1.162-1.748 2.054-3.046 2.696-1.298.635-2.811.956-4.523.956h-7.34v-.007zm4.387-3.503h2.768c.884 0 1.662-.164 2.318-.499a3.672 3.672 0 001.541-1.462c.371-.642.556-1.406.556-2.297 0-.892-.185-1.67-.556-2.304a3.699 3.699 0 00-1.541-1.456c-.656-.335-1.427-.499-2.318-.499h-2.768v8.517zm13.921 3.503V.54h4.388v15.515h-4.388zm5.652 0L126.771.54h4.323l6.87 15.515h-4.566l-5.364-13.368h1.726l-5.364 13.368h-4.48.007zm3.745-3.018l1.127-3.238h7.583l1.127 3.238h-9.844.007zM87.051 38.532c-1.227 0-2.361-.192-3.403-.585a7.895 7.895 0 01-2.703-1.676 7.7 7.7 0 01-1.783-2.561c-.428-.985-.643-2.062-.643-3.246 0-1.184.215-2.261.642-3.245a7.773 7.773 0 011.784-2.561 8.005 8.005 0 012.704-1.677c1.041-.392 2.175-.585 3.402-.585 1.434 0 2.718.25 3.845.756a7.333 7.333 0 012.825 2.176l-2.796 2.525a5.522 5.522 0 00-1.655-1.355c-.6-.314-1.27-.464-2.005-.464-.635 0-1.22.107-1.755.314a3.727 3.727 0 00-1.362.899c-.378.392-.67.863-.885 1.405a4.971 4.971 0 00-.32 1.82c0 .663.106 1.27.32 1.818.214.55.507 1.013.885 1.406.378.392.834.692 1.362.898a4.799 4.799 0 001.755.314c.742 0 1.405-.157 2.005-.463.599-.314 1.148-.764 1.655-1.356l2.796 2.526c-.756.934-1.698 1.647-2.825 2.161-1.127.506-2.411.763-3.845.763v-.007zm13.012-.313h-4.387V22.703h4.387V38.22zm6.299-6.05h-6.606v-3.637h6.606v3.638zm-.314-9.465h4.387v15.515h-4.387V22.703zm7.489 15.515V22.703h3.617l8.553 10.33h-1.705v-10.33h4.301V38.22h-3.609l-8.553-10.33h1.705v10.33h-4.309zm17.863 0V22.703h4.387V38.22H131.4z" fill="#0D59B5"/></svg>