<svg width="21" height="17" fill="none" xmlns="http://www.w3.org/2000/svg"><path d="M3.071 4.807V1.95h14.286v2.857h1.428v8.572h-1.428v1.428H3.07V13.38H1.643V4.807H3.07z" fill="#4E5158"/><path d="M1.643 13.38h1.429v1.428H1.643V13.38zm15.715 0h1.428v1.428h-1.428V13.38zM14.5 6.237h1.43v1.428H14.5V6.237zm-1.428 1.428h1.429v1.429h-1.429V7.665zm2.858-2.857h1.428v1.429h-1.429V4.808zm-12.858 0h1.429v1.429H3.072V4.808zM4.5 6.237h1.43v1.428H4.5V6.237zm1.43 1.428h1.428v1.429H5.929V7.665zm12.856 5.715h1.429v-10h-1.429V1.95h-1.428v2.857h1.428v8.572zm-5.714-2.857v-1.43H7.358v1.43h5.714zM1.643 3.38H.215v10h1.428V4.808h1.429V1.951H1.643V3.38zM3.072.522v1.429h14.286V.522H3.072zm0 14.286v1.429h14.286v-1.429H3.072z" fill="#101114"/></svg>