<svg width="13" height="18" fill="none" xmlns="http://www.w3.org/2000/svg"><path d="M2.04 11.104h.874v.875H2.04v-.875zm.874.875h.875v.875h-.875v-.875zm.876.875h.874v.875H3.79v-.875zm.874.875h.875v.875h-.875v-.875zm2.626 0h.874v.875H7.29v-.875zm.874-.875h.875v.875h-.875v-.875zm.876-.875h.874v.875H9.04v-.875zm.874-.875h.875v.875h-.875v-.875zM5.54 6.729h-.876v-.875h.875v.875zm2.624 0H7.29v-.875h.875v.875zm0 2.625H7.29v-.875h.875v.875zm-2.624 0h-.876v-.875h.875v.875z" fill="#101114" fill-opacity=".7"/><path d="M4.664 6.729H3.79v1.75h.875v-1.75zm2.626-.875v-.875H5.54v.875h1.75zm.874 2.625h.875v-1.75h-.875v1.75zm-2.624.875v.875h1.75v-.875H5.54zm-5.25 0h.874V4.979H.29v4.375zm1.75 0h-.876v1.75h.875v-1.75zm0-6.125h-.876v1.75h.875v-1.75zm7-.875v-.875H3.79v.875h5.25zm-5.25.875v-.875H2.04v.875h1.75zm7 0v-.875H9.04v.875h1.75zm.874 0h-.875v1.75h.875v-1.75zm0 6.125h.875V4.979h-.875v4.375zm-.874 1.75h.874v-1.75h-.875v1.75zm-3.5 4.375v-.875H5.54v.875h1.75z" fill="#101114" fill-opacity=".7"/></svg>