<svg width="13" height="15" fill="none" xmlns="http://www.w3.org/2000/svg"><path d="M1.938 9.647h.875v.876h-.876v-.876zm.875.876h.874v.875h-.874v-.875zm.875.875h.874v.875h-.875v-.875zm.875.875h.875v.875h-.875v-.875zm2.625 0h.875v.875h-.876v-.875zm.875-.875h.874v.875h-.874v-.875zm.875-.875h.874v.875h-.874v-.875zm.875-.876h.874v.876h-.874v-.876zM5.438 5.272h-.875v-.875h.875v.875zm2.625 0h-.876v-.875h.875v.875zm0 2.625h-.876v-.875h.875v.875zm-2.625 0h-.875v-.875h.875v.875zm-.875-2.625h-.875v1.75h.874v-1.75zm2.625-.875v-.875h-1.75v.875h1.75zm.875 2.625h.874v-1.75h-.874v1.75zm-2.625.875v.875h1.75v-.875h-1.75zm-5.25 0h.875V3.522H.188v4.375zm1.75 0h-.875v1.75h.875v-1.75zm0-6.125h-.875v1.75h.875v-1.75zm7-.875V.022h-5.25v.875h5.25zm-5.25.875V.897h-1.75v.875h1.75zm7 0V.897h-1.75v.875h1.75zm.875 0h-.876v1.75h.876v-1.75zm0 6.125h.874V3.522h-.874v4.375zm-.875 1.75h.874v-1.75h-.874v1.75zm-3.5 4.376v-.875h-1.75v.875h1.75z" fill="#fff" fill-opacity=".7"/></svg>