<svg width="18" height="18" fill="none" xmlns="http://www.w3.org/2000/svg"><path fill-rule="evenodd" clip-rule="evenodd" d="M16.27 5.28v.773h.773v6.182h-.773v.773h-.772v.772h-.773v.773h-.773v.773h-.773v.773h-.772v.772h-.773v.773H5.452v-.773H4.68V16.1h-.772v-.773h-.773v-.773H2.36v-.773h-.773v-.772H.816v-.773H.043V6.053h.773V5.28h.772v-.772h.773v-.773h.773v-.773h.773V2.19h.772v-.772h.773V.644h6.182v.773h.773v.772h.772v.773h.773v.773h.773v.773h.773v.772h.772zm-6.179 2.316V5.273H6.995v2.323h.774v2.322h1.548V7.596h.774zm-.774 3.87H7.77v1.55h1.548v-1.55z" fill="#1F6FCF"/></svg>