<svg width="55" height="31" fill="none" xmlns="http://www.w3.org/2000/svg"><path d="M36.818 12.798H30.81v6.008h6.007v-6.008zm0 12.015H30.81v6.007h6.007v-6.007z" fill="#0D59B5"/><path d="M48.91 24.813h-6.008v6.007h6.008v-6.007zm6.011 0h-6.007v6.007h6.007v-6.007z" fill="#FDD631"/><path d="M54.921 18.84h-6.007v6.006h6.007V18.84zm-36.113 5.973h-6.007v6.007h6.007v-6.007z" fill="#0D59B5"/><path d="M12.853 12.865H6.846v6.007h6.007v-6.007zm11.926 0H18.77v6.007h6.008v-6.007z" fill="#FDD631"/><path d="M6.88 12.865H.873v6.007H6.88v-6.007z" fill="#FDD631"/><path d="M6.88.85H.873v6.008H6.88V.851zm0 17.997H.873v6.007H6.88v-6.007z" fill="#0D59B5"/><path d="M18.808.873h-6.007V6.88h6.007V.873z" fill="#FDD631"/><path d="M42.828 18.806H36.82v6.007h6.008v-6.007z" fill="#0D59B5"/><path d="M48.835 12.812h-6.007v6.008h6.007v-6.008z" fill="#FDD631"/><path d="M48.835 6.848h-6.007v6.007h6.007V6.848z" fill="#FDD631"/><path d="M54.865.82h-6.008v6.008h6.008V.82zm-12.02.034h-6.007v6.007h6.007V.854zM30.808 18.809h-6.007v6.007h6.007V18.81zm6.01-.003H30.81v6.007h6.007v-6.007z" fill="#0D59B5"/></svg>