<svg width="372" height="265" fill="none" xmlns="http://www.w3.org/2000/svg"><path d="M370.863.119h-52.938v52.937h52.938V.119z" fill="url(#paint0_linear_132_3947)"/><path d="M211.801 105.672h-52.937v52.937h52.937v-52.937z" fill="url(#paint1_linear_132_3947)"/><path d="M211.801 264.486v-52.938h-52.925v-.002h52.925v-52.937h-52.937v.027h-52.925v52.938h52.925v52.912h52.937z" fill="url(#paint2_linear_132_3947)"/><path d="M265.462 211.548h52.937v52.938h-52.937v-52.938z" fill="url(#paint3_linear_132_3947)"/><path d="M371.351 264.486V158.905h-52.937v105.581h52.937z" fill="url(#paint4_linear_132_3947)"/><path d="M53.12 211.548H.185v52.938H53.12v-52.938z" fill="url(#paint5_linear_132_3947)"/><path d="M105.761 106.263H52.823V159.2h52.938v-52.937z" fill="url(#paint6_linear_132_3947)"/><path d="M53.12.579H.185v52.937H53.12V.58z" fill="url(#paint7_linear_132_3947)"/><path d="M211.83 158.609h52.937v52.937H211.83v-52.937z" fill="url(#paint8_linear_132_3947)"/><path d="M317.761 158.732v-105.5h-52.818V.416h-52.937v52.937h52.818v105.379h52.937z" fill="url(#paint9_linear_132_3947)"/><defs><linearGradient id="paint0_linear_132_3947" x1="448.057" y1="-153.508" x2="44.17" y2="239.292" gradientUnits="userSpaceOnUse"><stop stop-color="#E5E8EA"/><stop offset="1" stop-color="#E6E8EA" stop-opacity="0"/></linearGradient><linearGradient id="paint1_linear_132_3947" x1="448.057" y1="-153.508" x2="44.17" y2="239.292" gradientUnits="userSpaceOnUse"><stop stop-color="#E5E8EA"/><stop offset="1" stop-color="#E6E8EA" stop-opacity="0"/></linearGradient><linearGradient id="paint2_linear_132_3947" x1="448.057" y1="-153.508" x2="44.17" y2="239.292" gradientUnits="userSpaceOnUse"><stop stop-color="#E5E8EA"/><stop offset="1" stop-color="#E6E8EA" stop-opacity="0"/></linearGradient><linearGradient id="paint3_linear_132_3947" x1="448.057" y1="-153.508" x2="44.17" y2="239.292" gradientUnits="userSpaceOnUse"><stop stop-color="#E5E8EA"/><stop offset="1" stop-color="#E6E8EA" stop-opacity="0"/></linearGradient><linearGradient id="paint4_linear_132_3947" x1="448.057" y1="-153.508" x2="44.17" y2="239.292" gradientUnits="userSpaceOnUse"><stop stop-color="#E5E8EA"/><stop offset="1" stop-color="#E6E8EA" stop-opacity="0"/></linearGradient><linearGradient id="paint5_linear_132_3947" x1="448.057" y1="-153.508" x2="44.17" y2="239.292" gradientUnits="userSpaceOnUse"><stop stop-color="#E5E8EA"/><stop offset="1" stop-color="#E6E8EA" stop-opacity="0"/></linearGradient><linearGradient id="paint6_linear_132_3947" x1="448.057" y1="-153.508" x2="44.17" y2="239.292" gradientUnits="userSpaceOnUse"><stop stop-color="#E5E8EA"/><stop offset="1" stop-color="#E6E8EA" stop-opacity="0"/></linearGradient><linearGradient id="paint7_linear_132_3947" x1="448.057" y1="-153.508" x2="44.17" y2="239.292" gradientUnits="userSpaceOnUse"><stop stop-color="#E5E8EA"/><stop offset="1" stop-color="#E6E8EA" stop-opacity="0"/></linearGradient><linearGradient id="paint8_linear_132_3947" x1="448.057" y1="-153.508" x2="44.17" y2="239.292" gradientUnits="userSpaceOnUse"><stop stop-color="#E5E8EA"/><stop offset="1" stop-color="#E6E8EA" stop-opacity="0"/></linearGradient><linearGradient id="paint9_linear_132_3947" x1="448.057" y1="-153.508" x2="44.17" y2="239.292" gradientUnits="userSpaceOnUse"><stop stop-color="#E5E8EA"/><stop offset="1" stop-color="#E6E8EA" stop-opacity="0"/></linearGradient></defs></svg>