<svg width="54" height="52" fill="none" xmlns="http://www.w3.org/2000/svg"><path d="M53.018 6.073v8.636H51.29v1.728h-1.727v1.727h-1.727v1.727h-1.727v1.727H44.38v1.728h-1.727v1.727h-1.727V26.8h-1.728v1.727h-1.727v1.728h-1.727v1.727H32.29v-1.727h-1.727v-1.727h-1.727V26.8h-1.727v-1.727H25.38v-1.727h-1.727v-1.728h-1.727v-1.727h-1.728v-1.727h-1.727v-1.727h-1.727v-1.728h-1.727V6.073h1.727V4.346h1.727V2.618H20.2V.891h10.364v1.727h1.727v1.728h3.455V2.618h1.727V.891h10.364v1.727h1.727v1.728h1.727v1.727h1.728z" fill="#0D59B5"/><path d="M4.457 33.986H.984v17.338h3.473v-1.749h1.736v-13.84H4.457v-1.749zm3.505 13.876V37.448h3.408v-1.713h10.51v1.758h12.045v3.472H21.88v1.692h1.759v1.753h1.758v1.723h5.072v1.706h8.684v-1.706h5.192V44.41h3.462v-1.725h5.21v3.45h-3.462v1.724h-3.467v1.724H40.86v1.743H20.122v-1.75h-3.516v-1.713H7.962z" fill="#FDD631"/></svg>