<svg width="19" height="18" fill="none" xmlns="http://www.w3.org/2000/svg"><path d="M.5 8.682h1.286v1.286H.5V8.682zm11.571 7.714h1.286v1.286h-1.286v-1.286zm-1.285-1.286h1.285v1.286h-1.285v-1.285zM8.214 9.968H9.5v1.286H8.214V9.968zM9.5 8.682h1.286v1.286H9.5V8.682zm1.286-1.286h1.285v1.286h-1.285V7.396zm1.285-1.286h1.286v1.286h-1.286V6.111zm1.286-1.285h1.286V6.11h-1.286V4.825zm1.286-1.285h1.286v1.285h-1.286V3.539zM1.786 7.396v1.286h2.571V7.396H1.786zm2.571 3.858V9.968H1.786v1.286h2.571zm3.857 3.856H6.93v-2.57h1.285v-1.286H4.357v1.285h1.286v5.143h1.286v-1.286h1.285v-1.285z" fill="#FDD631"/><path d="M10.786 13.825H9.5v-1.286H8.214v2.572h2.572v-1.286zm3.857-1.285h-1.286v3.856h1.286V12.54zm1.286-3.858h-1.286v3.857h1.286V8.682zM4.357 6.11v1.286H6.93V6.111H4.357zm2.572-1.285V6.11H9.5V4.825H6.929zM9.5 3.54v1.285h2.571V3.539H9.5z" fill="#FDD631"/><path d="M14.643 3.54V2.252H12.07V3.54h2.572zm0-2.572v1.285h2.571V.968h-2.571zM18.5 2.253h-1.286v2.572H18.5V2.253zm-1.286 2.572H15.93v3.857h1.285V4.825z" fill="#FDD631"/></svg>