<svg width="690" height="454" fill="none" xmlns="http://www.w3.org/2000/svg"><path fill-rule="evenodd" clip-rule="evenodd" d="M571.104.985v23.654h23.655V.985h-23.655zm94.353 46.97v15.079l-23.389 9.803v-1.36h-23.562v-.104h-23.654v21.254l-5.35 2.242h-18.979V71.413h-23.654v23.654h23.24v7.999c-.683.373-1.329.813-1.929 1.312l-17.238 14.365h-4.152V95.145h-47.139v23.654h47.084v3.45l-21.849 18.208h-4.626v2.028h-.011v-2.028h-20.544V118.82h-23.654v23.654h20.544v.011h-23.972v-2.028h-23.654l.001 23.642h-23.654v23.655h11.45l-11.526 4.722v-4.975h-23.654v14.666l-28.837 11.813v-2.825h5.522v-23.654h-23.523v-23.552h-23.654v47.206h18.002v13.178l-.012.005v-7.174H325.43v18.197l-11.595 5.403h-12.08v5.629l-25.766 12.008a11.993 11.993 0 00-4.501 3.635l-28.804 38.063a11.98 11.98 0 01-2.073 2.129h-1.079v.77a12.024 12.024 0 01-3.583 1.52l-16.629 4.041v-2.465h-3.759v-27.52h-23.654v36.646l-43.494 10.568.001-19.694H124.76v25.442l-.012.003v-1.79h-23.653v12.173l-6.5 4.049V335.31H77.122v-29.216H53.47v5.485h-5.93v23.654h5.93v18.038h17.47v5.692H47.274v16.482l-9.024 5.62a12 12 0 00-5.655 10.186v15.052h-8.696v-23.598H.243v23.653h23.6v23.599h8.75v11.255c0 6.628 5.373 12 12 12H71.06v.695h47.177v-.695h558.876c6.628 0 12-5.372 12-12V71.16l-.001-.184V48.045h.004V24.391H665.62V.985h-47.206v47.177h23.654V24.64h23.393v23.315h-.004zm-94.268 23.653V47.954h23.655v23.654h-23.655zm-98.566 94.53v6.926l.012-.004v-6.922h-.012zm-20.227-71.29V71.196h47.177V94.85h-47.177zm23.655.011v23.654h-23.655V94.859h23.655zm-74.334 69.253h-23.654v-23.655h23.654v23.655zM.229 241.087v23.654h23.655v-23.654H.229zM.11 430.034v23.654h23.655v-23.654H.109zM100.788 311.71v18.039H77.134v-23.655h17.448v-18.038h23.655v23.654h-17.449zm-53.25-23.446h23.655v-23.523h23.552v-23.654H47.539v47.177zM.315 311.71v-23.654H23.97v23.654H.314zm277.491-118.2h23.654v47.177h-23.654V193.51zm47.319 23.654H301.47V193.51h23.654v23.654zm-109.553 85.064h23.654v-23.654h-23.654v23.654z" fill="url(#paint0_linear_340_80)"/><path fill-rule="evenodd" clip-rule="evenodd" d="M571.104.985v23.654h23.655V.985h-23.655zm94.353 46.97v15.079l-23.389 9.803v-1.36h-23.562v-.104h-23.654v21.254l-5.35 2.242h-18.979V71.413h-23.654v23.654h23.24v7.999c-.683.373-1.329.813-1.929 1.312l-17.238 14.365h-4.152V95.145h-47.139v23.654h47.084v3.45l-21.849 18.208h-4.626v2.028h-.011v-2.028h-20.544V118.82h-23.654v23.654h20.544v.011h-23.972v-2.028h-23.654l.001 23.642h-23.654v23.655h11.45l-11.526 4.722v-4.975h-23.654v14.666l-28.837 11.813v-2.825h5.522v-23.654h-23.523v-23.552h-23.654v47.206h18.002v13.178l-.012.005v-7.174H325.43v18.197l-11.595 5.403h-12.08v5.629l-25.766 12.008a11.993 11.993 0 00-4.501 3.635l-28.804 38.063a11.98 11.98 0 01-2.073 2.129h-1.079v.77a12.024 12.024 0 01-3.583 1.52l-16.629 4.041v-2.465h-3.759v-27.52h-23.654v36.646l-43.494 10.568.001-19.694H124.76v25.442l-.012.003v-1.79h-23.653v12.173l-6.5 4.049V335.31H77.122v-29.216H53.47v5.485h-5.93v23.654h5.93v18.038h17.47v5.692H47.274v16.482l-9.024 5.62a12 12 0 00-5.655 10.186v15.052h-8.696v-23.598H.243v23.653h23.6v23.599h8.75v11.255c0 6.628 5.373 12 12 12H71.06v.695h47.177v-.695h558.876c6.628 0 12-5.372 12-12V71.16l-.001-.184V48.045h.004V24.391H665.62V.985h-47.206v47.177h23.654V24.64h23.393v23.315h-.004zm-94.268 23.653V47.954h23.655v23.654h-23.655zm-98.566 94.53v6.926l.012-.004v-6.922h-.012zm-20.227-71.29V71.196h47.177V94.85h-47.177zm23.655.011v23.654h-23.655V94.859h23.655zm-74.334 69.253h-23.654v-23.655h23.654v23.655zM.229 241.087v23.654h23.655v-23.654H.229zM.11 430.034v23.654h23.655v-23.654H.109zM100.788 311.71v18.039H77.134v-23.655h17.448v-18.038h23.655v23.654h-17.449zm-53.25-23.446h23.655v-23.523h23.552v-23.654H47.539v47.177zM.315 311.71v-23.654H23.97v23.654H.314zm277.491-118.2h23.654v47.177h-23.654V193.51zm47.319 23.654H301.47V193.51h23.654v23.654zm-109.553 85.064h23.654v-23.654h-23.654v23.654z" fill="url(#paint1_linear_340_80)"/><defs><linearGradient id="paint0_linear_340_80" x1="747.558" y1="-602.685" x2="442.049" y2="216.661" gradientUnits="userSpaceOnUse"><stop stop-color="#1271E3"/><stop offset="1" stop-color="#1271E3" stop-opacity="0"/></linearGradient><linearGradient id="paint1_linear_340_80" x1="224.166" y1="993.787" x2="293.678" y2="291.777" gradientUnits="userSpaceOnUse"><stop stop-color="#FFD213"/><stop offset="1" stop-color="#FFD214" stop-opacity="0"/></linearGradient></defs></svg>