<svg width="346" height="355" fill="none" xmlns="http://www.w3.org/2000/svg"><path fill-rule="evenodd" clip-rule="evenodd" d="M253.631 19.24V.75h18.489v18.488h-18.489zm92.237 92.134v18.737h.001V148.6h-.001v.008h.001v18.488h-.001v175.127c0 6.628-5.373 12-12 12H12.924c-6.628 0-12-5.372-12-12V240.446c0-2.119.56-4.2 1.625-6.031l16.406-28.222a12.005 12.005 0 015.306-4.846l18.838-8.779v-4.399h9.441l9.064-4.224v-14.223h18.489v5.607l.009-.004v-10.3H66.033v-36.897h18.489v18.408h18.386v18.489H98.59v2.208l22.541-9.234v-11.463h18.489v3.888l9.007-3.69h-8.947v-18.489h18.488v-18.479h18.488v1.585h18.737v-.009h-16.062V92.854h18.489v16.912h16.062v1.585h.008v-1.585h3.613l17.077-14.231v-2.698h-36.802V74.35h36.845v18.445h3.247l13.171-10.976c.564-.47 1.17-.887 1.809-1.246v-6.284h-18.165V55.8h18.489v18.333h14.836l4.179-1.752V55.768h18.49v.081h18.419v1.063l18.282-7.663V37.463h.001V19.24h-18.283v18.387h-18.489V.75h36.897v18.295h18.364v18.489h-.001v18.417h-.539c.348 1.123.538 2.326.538 3.59v33.343h.001v18.489h-.001zm-92.171-73.91v18.488h18.489V37.463h-18.489zm-77.032 97.784l-.009.004v-5.413h.009v5.409zm-15.823-79.619v18.489h36.875V55.629h-36.875zm18.489 36.985V74.126h-18.489v18.488h18.489zm-76.585 35.641h18.488v-18.489h-18.488v18.489zm-78.367 22.978h18.489v36.875H24.379v-36.875zm36.986 18.489H42.876v-18.489h18.489v18.489z" fill="url(#paint0_linear_340_370)"/><path fill-rule="evenodd" clip-rule="evenodd" d="M253.631 19.24V.75h18.489v18.488h-18.489zm92.237 92.134v18.737h.001V148.6h-.001v.008h.001v18.488h-.001v175.127c0 6.628-5.373 12-12 12H12.924c-6.628 0-12-5.372-12-12V240.446c0-2.119.56-4.2 1.625-6.031l16.406-28.222a12.005 12.005 0 015.306-4.846l18.838-8.779v-4.399h9.441l9.064-4.224v-14.223h18.489v5.607l.009-.004v-10.3H66.033v-36.897h18.489v18.408h18.386v18.489H98.59v2.208l22.541-9.234v-11.463h18.489v3.888l9.007-3.69h-8.947v-18.489h18.488v-18.479h18.488v1.585h18.737v-.009h-16.062V92.854h18.489v16.912h16.062v1.585h.008v-1.585h3.613l17.077-14.231v-2.698h-36.802V74.35h36.845v18.445h3.247l13.171-10.976c.564-.47 1.17-.887 1.809-1.246v-6.284h-18.165V55.8h18.489v18.333h14.836l4.179-1.752V55.768h18.49v.081h18.419v1.063l18.282-7.663V37.463h.001V19.24h-18.283v18.387h-18.489V.75h36.897v18.295h18.364v18.489h-.001v18.417h-.539c.348 1.123.538 2.326.538 3.59v33.343h.001v18.489h-.001zm-92.171-73.91v18.488h18.489V37.463h-18.489zm-77.032 97.784l-.009.004v-5.413h.009v5.409zm-15.823-79.619v18.489h36.875V55.629h-36.875zm18.489 36.985V74.126h-18.489v18.488h18.489zm-76.585 35.641h18.488v-18.489h-18.488v18.489zm-78.367 22.978h18.489v36.875H24.379v-36.875zm36.986 18.489H42.876v-18.489h18.489v18.489z" fill="url(#paint1_linear_340_370)"/><defs><linearGradient id="paint0_linear_340_370" x1="375.129" y1="-470.369" x2="58.69" y2="74.044" gradientUnits="userSpaceOnUse"><stop stop-color="#1271E3"/><stop offset="1" stop-color="#1271E3" stop-opacity="0"/></linearGradient><linearGradient id="paint1_linear_340_370" x1="113.096" y1="775.56" x2="196.504" y2="235.195" gradientUnits="userSpaceOnUse"><stop stop-color="#FFD213"/><stop offset="1" stop-color="#FFD214" stop-opacity="0"/></linearGradient></defs></svg>