<svg width="1381" height="715" fill="none" xmlns="http://www.w3.org/2000/svg"><rect x=".23" y=".54" width="1380" height="656" rx="12" fill="url(#paint0_linear_701_63)"/><rect x=".23" y=".54" width="1380" height="656" rx="12" fill="url(#paint1_linear_701_63)"/><path fill-rule="evenodd" clip-rule="evenodd" d="M73.41 656.54v17.628h35.575V656.54H73.41zm71.149 0v17.628h70.994V656.54h-70.994z" fill="#FFF6CF"/><path fill-rule="evenodd" clip-rule="evenodd" d="M985.896 656.54v23.094h35.574V656.54h-35.574zm141.704 0v22.868h35.57v35.556h35.57V656.54h-71.14zm71.16 0v22.85h35.57v-22.85h-35.57zm71.62 0v58.424h35.58V656.54h-35.58zm-35.58 22.85h35.57v35.574h-35.57V679.39zm-142.69 0h-35.58v35.574h35.58V679.39z" fill="#FFF6D1"/><defs><linearGradient id="paint0_linear_701_63" x1="1497.28" y1="-873.8" x2="1157.51" y2="386.296" gradientUnits="userSpaceOnUse"><stop stop-color="#1271E3"/><stop offset="1" stop-color="#1271E3" stop-opacity="0"/></linearGradient><linearGradient id="paint1_linear_701_63" x1="448.99" y1="1438.49" x2="522.134" y2="416.983" gradientUnits="userSpaceOnUse"><stop stop-color="#FFD213"/><stop offset="1" stop-color="#FFD214" stop-opacity="0"/></linearGradient></defs></svg>