<svg width="808" height="620" fill="none" xmlns="http://www.w3.org/2000/svg"><path d="M1071.38 232.19l-89.31 51.565 89.31 51.565 89.32-51.565-89.32-51.565z" fill="url(#paint0_linear_652_598)"/><path d="M1160.69 180.63l-89.31 51.565 89.31 51.565 89.31-51.565-89.31-51.565z" fill="url(#paint1_linear_652_598)"/><path d="M1071.79 129.305l-89.312 51.565 89.312 51.565 89.31-51.565-89.31-51.565z" fill="url(#paint2_linear_652_598)"/><path d="M623.647 490.686l-89.313 51.565 89.313 51.565 89.313-51.565-89.313-51.565z" fill="url(#paint3_linear_652_598)"/><path d="M534.82 336.771l-89.313 51.565 89.313 51.565 89.313-51.565-89.313-51.565z" fill="url(#paint4_linear_652_598)"/><path d="M179.244 542.064l89.314 51.565L446.766 490.74l-89.313-51.565-178.209 102.889z" fill="url(#paint5_linear_652_598)"/><path d="M89.849 387.32L.535 438.885l89.313 51.565 89.314-51.565-89.314-51.565z" fill="url(#paint6_linear_652_598)"/><path d="M357.455 541.823l-89.313 51.565 89.313 51.565 89.314-51.565-89.314-51.565z" fill="url(#paint7_linear_652_598)"/><path d="M267.564 285.102l-89.313 51.565 89.313 51.565 89.313-51.565-89.313-51.565z" fill="url(#paint8_linear_652_598)"/><path d="M713.717 130.068l178.125 102.84 89.313-51.565L803.03 78.503l-89.313 51.565z" fill="url(#paint9_linear_652_598)"/><path d="M803.093-24.953l-89.314 51.565 89.314 51.565 89.313-51.565-89.313-51.565z" fill="url(#paint10_linear_652_598)"/><path d="M624.725 78.507l-89.313 51.565 89.313 51.565 89.313-51.564-89.313-51.566z" fill="url(#paint11_linear_652_598)"/><path d="M712.779 232.876l-89.313 51.565 89.314 51.565 89.313-51.565-89.314-51.565z" fill="url(#paint12_linear_652_598)"/><path d="M891.409 232.872l-89.313 51.565 89.313 51.565 89.313-51.565-89.313-51.565z" fill="url(#paint13_linear_652_598)"/><path d="M712.868 336.048l-89.314 51.565 89.314 51.565 89.313-51.565 89.313 51.565 89.313-51.565-178.71-103.178L712.784 336l.084.048z" fill="url(#paint14_linear_652_598)"/><defs><linearGradient id="paint0_linear_652_598" x1="889.785" y1="280.241" x2="197.536" y2="381.228" gradientUnits="userSpaceOnUse"><stop stop-color="#3E86DE"/><stop offset="1" stop-color="#377FD7" stop-opacity="0"/></linearGradient><linearGradient id="paint1_linear_652_598" x1="889.785" y1="280.241" x2="197.536" y2="381.228" gradientUnits="userSpaceOnUse"><stop stop-color="#3E86DE"/><stop offset="1" stop-color="#377FD7" stop-opacity="0"/></linearGradient><linearGradient id="paint2_linear_652_598" x1="889.785" y1="280.241" x2="197.536" y2="381.228" gradientUnits="userSpaceOnUse"><stop stop-color="#3E86DE"/><stop offset="1" stop-color="#377FD7" stop-opacity="0"/></linearGradient><linearGradient id="paint3_linear_652_598" x1="889.785" y1="280.241" x2="197.536" y2="381.228" gradientUnits="userSpaceOnUse"><stop stop-color="#3E86DE"/><stop offset="1" stop-color="#377FD7" stop-opacity="0"/></linearGradient><linearGradient id="paint4_linear_652_598" x1="889.785" y1="280.241" x2="197.536" y2="381.228" gradientUnits="userSpaceOnUse"><stop stop-color="#3E86DE"/><stop offset="1" stop-color="#377FD7" stop-opacity="0"/></linearGradient><linearGradient id="paint5_linear_652_598" x1="889.785" y1="280.241" x2="197.536" y2="381.228" gradientUnits="userSpaceOnUse"><stop stop-color="#3E86DE"/><stop offset="1" stop-color="#377FD7" stop-opacity="0"/></linearGradient><linearGradient id="paint6_linear_652_598" x1="889.785" y1="280.241" x2="197.536" y2="381.228" gradientUnits="userSpaceOnUse"><stop stop-color="#3E86DE"/><stop offset="1" stop-color="#377FD7" stop-opacity="0"/></linearGradient><linearGradient id="paint7_linear_652_598" x1="889.785" y1="280.241" x2="197.536" y2="381.228" gradientUnits="userSpaceOnUse"><stop stop-color="#3E86DE"/><stop offset="1" stop-color="#377FD7" stop-opacity="0"/></linearGradient><linearGradient id="paint8_linear_652_598" x1="889.785" y1="280.241" x2="197.536" y2="381.228" gradientUnits="userSpaceOnUse"><stop stop-color="#3E86DE"/><stop offset="1" stop-color="#377FD7" stop-opacity="0"/></linearGradient><linearGradient id="paint9_linear_652_598" x1="889.785" y1="280.241" x2="197.536" y2="381.228" gradientUnits="userSpaceOnUse"><stop stop-color="#3E86DE"/><stop offset="1" stop-color="#377FD7" stop-opacity="0"/></linearGradient><linearGradient id="paint10_linear_652_598" x1="889.785" y1="280.241" x2="197.536" y2="381.228" gradientUnits="userSpaceOnUse"><stop stop-color="#3E86DE"/><stop offset="1" stop-color="#377FD7" stop-opacity="0"/></linearGradient><linearGradient id="paint11_linear_652_598" x1="889.785" y1="280.241" x2="197.536" y2="381.228" gradientUnits="userSpaceOnUse"><stop stop-color="#3E86DE"/><stop offset="1" stop-color="#377FD7" stop-opacity="0"/></linearGradient><linearGradient id="paint12_linear_652_598" x1="889.785" y1="280.241" x2="197.536" y2="381.228" gradientUnits="userSpaceOnUse"><stop stop-color="#3E86DE"/><stop offset="1" stop-color="#377FD7" stop-opacity="0"/></linearGradient><linearGradient id="paint13_linear_652_598" x1="889.785" y1="280.241" x2="197.536" y2="381.228" gradientUnits="userSpaceOnUse"><stop stop-color="#3E86DE"/><stop offset="1" stop-color="#377FD7" stop-opacity="0"/></linearGradient><linearGradient id="paint14_linear_652_598" x1="889.785" y1="280.241" x2="197.536" y2="381.228" gradientUnits="userSpaceOnUse"><stop stop-color="#3E86DE"/><stop offset="1" stop-color="#377FD7" stop-opacity="0"/></linearGradient></defs></svg>