<svg width="70" height="39" fill="none" xmlns="http://www.w3.org/2000/svg"><path d="M46.172 15.711h-7.61v7.61h7.61v-7.61zm0 15.219h-7.61v7.61h7.61v-7.61z" fill="#1F6FCF"/><path d="M61.494 30.93h-7.61v7.61h7.61v-7.61zm7.611 0h-7.609v7.61h7.61v-7.61z" fill="#FDD631"/><path d="M69.105 23.363h-7.609v7.61h7.61v-7.61zM23.363 30.93h-7.61v7.61h7.61v-7.61z" fill="#1F6FCF"/><path d="M15.82 15.797H8.21v7.609h7.61v-7.61zm15.11 0h-7.61v7.609h7.61v-7.61z" fill="#FDD631"/><path d="M8.254 15.797H.644v7.609h7.61v-7.61z" fill="#FDD631"/><path d="M8.254.578H.644v7.61h7.61V.577zm0 22.795H.644v7.61h7.61v-7.61z" fill="#1F6FCF"/><path d="M23.363.605h-7.61v7.61h7.61V.605z" fill="#FDD631"/><path d="M53.785 23.32h-7.61v7.61h7.61v-7.61z" fill="#1F6FCF"/><path d="M61.402 15.729h-7.609v7.61h7.61v-7.61z" fill="#FDD631"/><path d="M61.402 8.174h-7.609v7.61h7.61v-7.61z" fill="#FDD631"/><path d="M69.035.54h-7.61v7.609h7.61V.539zM53.81.583h-7.609v7.609h7.61V.582zM38.564 23.325h-7.609v7.609h7.61v-7.61z" fill="#1F6FCF"/><path d="M46.172 23.32h-7.61v7.61h7.61v-7.61z" fill="#1F6FCF"/></svg>